#!OML:ASF H:\Terrain\Patient Classification 1\Walking\liu\liu.ASF
:FULLY-SPECIFIED
:DEGREES
275
root 10.960884 18.567669 1.888700 6.496347 -4.406072 2.010393
lowerback -5.253985 -1.679898 -3.137563
upperback -0.665358 -2.131360 2.377980
thorax 2.447346 -1.101540 4.072167
lowerneck -24.207479 -4.070451 -12.448260
upperneck 23.751200 -4.791061 12.615350
head 12.267860 -1.666566 5.981382
rclavicle -0.000000 -0.000000
rhumerus -50.461952 9.536725 -91.551567
rradius 47.018066
rwrist -26.344780
rhand -33.155651 -24.001450
rfingers 7.837522
rthumb -3.799499 -56.948433
lclavicle -0.000000 -0.000000
lhumerus -23.707090 -14.899940 95.815941
lradius 26.131380
lwrist -0.080547
lhand -13.990020 -27.119730
lfingers 7.837522
lthumb 14.701389 5.386755
rfemur -28.567989 -1.860496 19.800440
rtibia 70.601959
rfoot -20.247700 -12.969660
rtoes -21.284672
lfemur -19.403778 7.187070 -31.211510
ltibia 32.648441
lfoot -18.946840 7.526552
ltoes -5.138936
276
root 10.975944 18.556890 2.035407 6.334053 -4.050365 2.214443
lowerback -5.320931 -1.865314 -3.355165
upperback -0.599855 -2.366287 2.392258
thorax 2.581359 -1.224443 4.190230
lowerneck -24.155890 -4.056976 -12.390620
upperneck 24.016850 -4.761515 12.403050
head 12.345630 -1.676873 5.904987
rclavicle -0.000000 0.000000
rhumerus -50.372849 9.215227 -91.308472
rradius 46.850540
rwrist -25.777950
rhand -32.665489 -24.193180
rfingers 7.837522
rthumb -3.326191 -57.147308
lclavicle -0.000000 0.000000
lhumerus -22.954031 -15.318930 95.761047
lradius 26.346321
lwrist 0.086587
lhand -14.343230 -26.938780
lfingers 7.837522
lthumb 14.360829 5.589771
rfemur -29.556780 -1.918455 19.642151
rtibia 69.738792
rfoot -20.442511 -13.012010
rtoes -19.872490
lfemur -18.588350 6.878102 -31.397411
ltibia 32.427448
lfoot -19.254292 7.303912
ltoes -3.312210
277
root 10.993114 18.544899 2.187416 6.195354 -3.658446 2.307393
lowerback -5.564504 -2.013187 -3.351876
upperback -0.378656 -2.557676 2.364208
thorax 2.962245 -1.330186 4.134350
lowerneck -24.320339 -4.035405 -12.273140
upperneck 24.143570 -4.719418 12.240800
head 12.411520 -1.663684 5.835291
rclavicle 0.000000 -0.000000
rhumerus -50.228638 9.224293 -91.377884
rradius 46.805988
rwrist -26.149639
rhand -32.433502 -25.045790
rfingers 7.837522
rthumb -3.102099 -58.002998
lclavicle 0.000000 -0.000000
lhumerus -21.827850 -15.522981 95.557220
lradius 26.463690
lwrist 0.117426
lhand -14.048540 -26.676319
lfingers 7.837522
lthumb 14.644959 5.833916
rfemur -30.478689 -2.027531 19.579889
rtibia 68.747581
rfoot -20.654701 -13.053591
rtoes -20.026270
lfemur -17.755539 6.632010 -31.502350
ltibia 32.279720
lfoot -19.785261 6.993481
ltoes -1.197031
278
root 10.999582 18.531700 2.318899 6.226165 -3.183708 2.128412
lowerback -5.522913 -2.204653 -3.192266
upperback -0.424876 -2.825669 2.461228
thorax 2.912536 -1.461108 4.125660
lowerneck -24.098249 -4.020181 -12.436271
upperneck 24.087580 -4.699739 12.383360
head 12.353000 -1.657183 5.917791
rclavicle -0.000000 -0.000000
rhumerus -50.556000 9.509368 -91.490738
rradius 47.036770
rwrist -26.607349
rhand -32.029907 -25.443880
rfingers 7.837522
rthumb -2.712336 -58.405930
lclavicle -0.000000 -0.000000
lhumerus -21.040909 -15.513300 95.412125
lradius 26.582380
lwrist -0.166389
lhand -14.604810 -26.840000
lfingers 7.837522
lthumb 14.108601 5.704589
rfemur -31.619280 -1.882287 19.901091
rtibia 67.618652
rfoot -21.931580 -13.054140
rtoes -20.331079
lfemur -17.131290 6.515465 -31.304790
ltibia 32.094372
lfoot -19.970280 6.782369
ltoes -0.519896
279
root 11.008470 18.526531 2.454133 6.146074 -2.659250 2.097546
lowerback -5.382443 -2.414401 -3.128862
upperback -0.499111 -3.112549 2.495658
thorax 2.781097 -1.600467 4.109204
lowerneck -23.901022 -4.049001 -12.675960
upperneck 24.220020 -4.757269 12.628220
head 12.384680 -1.680624 6.048790
rclavicle -0.000000 0.000000
rhumerus -50.835068 9.280095 -91.327827
rradius 46.966698
rwrist -26.172081
rhand -32.020668 -25.695339
rfingers 7.837522
rthumb -2.703382 -58.657391
lclavicle -0.000000 0.000000
lhumerus -20.478701 -15.669721 95.295311
lradius 26.826361
lwrist -0.302567
lhand -15.465670 -26.833620
lfingers 7.837522
lthumb 13.278760 5.761382
rfemur -32.560658 -1.846141 20.008011
rtibia 66.380157
rfoot -22.938410 -13.140821
rtoes -18.456461
lfemur -16.309259 6.390736 -31.254850
ltibia 31.824650
lfoot -20.105471 6.555967
ltoes -0.076598
280
root 11.021010 18.531260 2.597067 5.947744 -2.198680 2.327743
lowerback -5.439841 -2.589554 -3.272918
upperback -0.269698 -3.334925 2.388408
thorax 3.071420 -1.720884 4.054270
lowerneck -23.972191 -4.042434 -12.634820
upperneck 24.207039 -4.757203 12.643291
head 12.392930 -1.673166 6.047492
rclavicle -0.000000 0.000000
rhumerus -50.317410 8.275487 -90.940414
rradius 46.181080
rwrist -25.068340
rhand -31.849838 -23.888481
rfingers 7.837522
rthumb -2.538393 -56.852512
lclavicle -0.000000 0.000000
lhumerus -19.443270 -16.518921 95.066620
lradius 27.101801
lwrist 0.466016
lhand -15.575890 -26.540251
lfingers 7.837522
lthumb 13.172390 6.060967
rfemur -33.366188 -1.869571 19.739500
rtibia 65.087990
rfoot -22.480810 -13.495131
rtoes -17.630360
lfemur -15.339170 6.101766 -31.461540
ltibia 31.461540
lfoot -20.522699 6.256448
ltoes 0.180316
281
root 11.023649 18.535770 2.730772 5.957314 -1.685222 2.709014
lowerback -5.515983 -2.819069 -3.753662
upperback -0.146619 -3.610321 2.322364
thorax 3.289253 -1.870308 4.227432
lowerneck -24.031809 -3.998643 -12.695540
upperneck 24.159740 -4.690334 12.743500
head 12.381380 -1.633973 6.106188
rclavicle 0.000000 0.000000
rhumerus -50.091248 7.944794 -90.813362
rradius 45.854603
rwrist -24.610741
rhand -31.117790 -22.586630
rfingers 7.837522
rthumb -1.831379 -55.557152
lclavicle 0.000000 0.000000
lhumerus -18.308069 -17.199820 94.880836
lradius 27.106642
lwrist 1.336225
lhand -15.822400 -26.737261
lfingers 7.837522
lthumb 12.934680 5.877685
rfemur -34.438580 -1.830719 19.324141
rtibia 63.744778
rfoot -22.311520 -13.632740
rtoes -18.141420
lfemur -14.545851 5.718944 -31.845881
ltibia 30.915720
lfoot -20.821789 6.245602
ltoes -0.524725
